<svg width="145" height="37" viewBox="0 0 145 37" fill="none" xmlns="http://www.w3.org/2000/svg">
<path d="M54.668 29.9351C51.0978 29.9351 49.1567 28.2713 49.1567 24.3545V15.897H46.6264V11.9109H49.1567V8.27146L53.8361 7.78619V11.9109H57.6489V15.897H53.8361V24.1119C53.8361 25.2557 54.3907 25.7756 55.2919 25.7756H57.2329V29.9351H54.668ZM59.213 29.9351V11.9109H63.7537V15.3425C64.3776 12.7428 66.2147 11.3217 69.3342 11.495V15.897H68.6756C65.972 15.897 63.8923 17.6995 63.8923 20.715V29.9351H59.213ZM78.6417 30.3857C73.0612 30.3857 69.3177 26.1569 69.3177 20.9577C69.3177 15.7584 73.2345 11.4603 78.6417 11.4603C84.0489 11.4603 87.7924 15.7584 87.7924 20.9577C87.7924 21.4776 87.7578 22.0322 87.6538 22.6214H74.1703C74.6903 24.7358 76.2847 26.2263 78.6417 26.2263C80.6521 26.2263 82.2119 25.1864 83.0438 23.7999L86.6832 26.5382C85.2274 28.7912 82.2119 30.3857 78.6417 30.3857ZM74.1703 19.1206H83.0784C82.5585 17.1102 80.8601 15.4811 78.5724 15.4811C76.354 15.4811 74.6903 16.9716 74.1703 19.1206ZM89.8467 29.9351V11.9109H94.4567V14.5452C95.3925 12.5349 97.195 11.495 99.9679 11.495C103.85 11.495 106.831 14.3719 106.831 18.9126V29.9351H102.152V20.0565C102.152 16.9369 100.592 15.5851 98.2695 15.5851C96.2938 15.5851 94.526 16.9369 94.526 20.0565V29.9351H89.8467ZM118.042 30.3857C112.877 30.3857 108.752 26.1569 108.752 20.923C108.752 15.6891 112.773 11.495 118.284 11.4603C121.577 11.4257 124.246 12.7082 125.771 14.8225L122.166 17.7688C121.334 16.521 119.948 15.7237 118.354 15.7237C115.373 15.7237 113.432 18.1154 113.432 20.923C113.432 23.7306 115.477 26.1223 118.458 26.1223C120.26 26.1223 121.438 25.2211 122.374 23.9732L125.771 26.9195C124.073 29.1032 121.577 30.3857 118.042 30.3857ZM127.623 29.9351V4.63197H132.302V14.4066C133.272 12.4655 135.04 11.495 137.744 11.495C141.626 11.495 144.607 14.3719 144.607 18.9126V29.9351H139.927V20.0565C139.927 16.9369 138.368 15.5851 136.045 15.5851C134.07 15.5851 132.302 16.9369 132.302 20.0565V29.9351H127.623Z" fill="white"/>
<g filter="url(#filter0_ii_1609_97551)">
<path fill-rule="evenodd" clip-rule="evenodd" d="M7.74004 1.81862L7.39397 1.81893C7.32404 1.8187 7.25416 1.81808 7.18433 1.81747C6.71345 1.81334 6.24503 1.80923 5.78369 1.92169L5.67187 1.95194C4.28727 2.25786 3.05343 2.96081 2.05419 3.96509C0.509702 5.56739 -0.0207339 7.50848 0.000616269 9.68218C0.00265222 9.88096 0.00369013 10.0797 0.00407171 10.2785C0.00472613 10.6551 0.00661616 11.0317 0.00960747 11.4083C0.0130346 11.8396 0.0151006 12.2708 0.0166207 12.7021C0.0198075 13.6306 0.0250161 14.5591 0.0320006 15.4876L0.163577 15.4893L0.338474 15.4907C0.624734 15.4935 0.888798 15.4626 1.16899 15.4059L1.33808 15.3689C1.52377 15.3285 1.70906 15.2869 1.89406 15.2434L2.08387 15.1982C2.49128 15.1045 2.88151 15.002 3.26723 14.8394L3.41592 14.7752C4.38487 14.3746 5.30576 13.9216 6.21125 13.3927L6.38427 13.291C7.32021 12.743 8.23869 12.1679 9.14668 11.5748C9.61002 11.2721 10.0755 10.9746 10.5492 10.6884C10.7335 10.5771 10.9174 10.4655 11.0994 10.3506C13.1359 9.05328 15.4623 7.78917 17.9358 7.75238L18.1315 7.75136C19.1761 7.7456 20.1106 7.98919 21.0527 8.42807L21.2372 8.51571C21.2538 8.52359 21.2703 8.53143 21.2868 8.53925C21.6058 8.69038 21.9111 8.835 22.1759 9.07599C21.8644 9.16922 21.5552 9.267 21.2492 9.37709C20.4665 9.68106 19.8043 10.1774 19.4469 10.9528C19.3069 11.4124 19.2849 12.0204 19.4953 12.4615L19.5638 12.5786C20.3157 13.9073 21.6705 14.6674 23.1028 15.0779L23.3039 15.1314C23.4643 15.1751 23.6249 15.2176 23.7862 15.2576C26.0187 15.7727 28.6403 15.7049 30.6227 14.4825L30.7248 14.419C32.1502 13.54 33.1957 12.1858 33.7575 10.6146L33.8118 10.4563C33.9166 10.155 33.9868 9.95313 34.0335 9.746C34.1283 9.3256 34.1266 8.88341 34.1212 7.54376C34.1204 7.34813 34.12 7.1525 34.1199 6.95687C34.1196 6.58669 34.1188 6.21652 34.1176 5.84635C34.1163 5.42212 34.1154 4.99789 34.1148 4.57365C34.1136 3.66017 34.1115 2.74669 34.1087 1.83321C31.5414 1.83124 28.9741 1.82937 26.4068 1.82828L26.1704 1.82818L23.6222 1.82719L22.3712 1.82673L22.2454 1.82669C20.899 1.82618 19.5526 1.82534 18.2062 1.82425C16.8201 1.82313 15.4339 1.82234 14.0478 1.82208C13.1934 1.82193 12.3391 1.82162 11.4847 1.82066C10.8938 1.81999 10.303 1.81962 9.71205 1.81968L9.6005 1.81971C9.29647 1.8198 8.99243 1.81989 8.68839 1.81943C8.37227 1.81883 8.05616 1.81836 7.74004 1.81862ZM15.1751 13.8537C15.1601 13.8301 15.1429 13.808 15.1105 13.7665C14.9682 13.7038 14.8974 13.7001 14.7477 13.7436L14.6126 13.8062L14.4602 13.8767L14.2979 13.9557C12.6847 14.7384 11.2665 16.0352 10.6077 17.7365L10.5393 17.9222C10.1099 19.0208 10.0374 20.1361 10.0431 21.3059C10.0438 21.4406 10.0441 21.5754 10.0442 21.7101C10.0439 22.0797 10.0443 22.4493 10.0455 22.8189C10.0468 23.2106 10.0474 23.6023 10.0476 23.994C10.0479 24.6924 10.0489 25.3908 10.0506 26.0893C10.0522 26.7685 10.0536 27.4477 10.0544 28.127L10.0546 28.2546L10.0552 28.8891C10.0571 30.6755 10.0603 32.4618 10.0643 34.2482C10.9515 34.2508 11.8387 34.2529 12.7258 34.2541C13.1577 34.2547 13.5896 34.2554 14.0215 34.2567C14.4003 34.2579 14.7791 34.2589 15.158 34.2592C15.3192 34.2594 15.4804 34.2595 15.6416 34.2597C17.2738 34.2664 18.9171 34.2022 20.346 33.3079L20.4536 33.2389C20.4855 33.2185 20.5175 33.1982 20.5496 33.1778C20.9665 32.913 21.3919 32.6427 21.7263 32.277L21.819 32.1703C21.9539 32.0245 22.0881 31.8783 22.2197 31.7295L22.3533 31.5766C23.7487 30.0205 24.0567 28.0448 24.0407 26.0269C24.0389 25.8144 24.0382 25.602 24.0379 25.3894C24.0374 24.987 24.0359 24.5847 24.0335 24.1823C24.0308 23.7213 24.0291 23.2603 24.0279 22.7994C24.0253 21.8069 24.0212 20.8144 24.0156 19.822L23.8949 19.7969L23.735 19.7642C23.5834 19.733 23.4346 19.7047 23.2808 19.6873C21.0474 19.4986 18.693 18.2135 17.1659 16.605L17.0103 16.438C16.3733 15.7738 15.8042 15.0563 15.374 14.2415L15.3033 14.1005L15.2365 13.9706C15.2063 13.9092 15.1921 13.8805 15.1751 13.8537Z" fill="url(#paint0_linear_1609_97551)"/>
<path fill-rule="evenodd" clip-rule="evenodd" d="M7.74004 1.81862L7.39397 1.81893C7.32404 1.8187 7.25416 1.81808 7.18433 1.81747C6.71345 1.81334 6.24503 1.80923 5.78369 1.92169L5.67187 1.95194C4.28727 2.25786 3.05343 2.96081 2.05419 3.96509C0.509702 5.56739 -0.0207339 7.50848 0.000616269 9.68218C0.00265222 9.88096 0.00369013 10.0797 0.00407171 10.2785C0.00472613 10.6551 0.00661616 11.0317 0.00960747 11.4083C0.0130346 11.8396 0.0151006 12.2708 0.0166207 12.7021C0.0198075 13.6306 0.0250161 14.5591 0.0320006 15.4876L0.163577 15.4893L0.338474 15.4907C0.624734 15.4935 0.888798 15.4626 1.16899 15.4059L1.33808 15.3689C1.52377 15.3285 1.70906 15.2869 1.89406 15.2434L2.08387 15.1982C2.49128 15.1045 2.88151 15.002 3.26723 14.8394L3.41592 14.7752C4.38487 14.3746 5.30576 13.9216 6.21125 13.3927L6.38427 13.291C7.32021 12.743 8.23869 12.1679 9.14668 11.5748C9.61002 11.2721 10.0755 10.9746 10.5492 10.6884C10.7335 10.5771 10.9174 10.4655 11.0994 10.3506C13.1359 9.05328 15.4623 7.78917 17.9358 7.75238L18.1315 7.75136C19.1761 7.7456 20.1106 7.98919 21.0527 8.42807L21.2372 8.51571C21.2538 8.52359 21.2703 8.53143 21.2868 8.53925C21.6058 8.69038 21.9111 8.835 22.1759 9.07599C21.8644 9.16922 21.5552 9.267 21.2492 9.37709C20.4665 9.68106 19.8043 10.1774 19.4469 10.9528C19.3069 11.4124 19.2849 12.0204 19.4953 12.4615L19.5638 12.5786C20.3157 13.9073 21.6705 14.6674 23.1028 15.0779L23.3039 15.1314C23.4643 15.1751 23.6249 15.2176 23.7862 15.2576C26.0187 15.7727 28.6403 15.7049 30.6227 14.4825L30.7248 14.419C32.1502 13.54 33.1957 12.1858 33.7575 10.6146L33.8118 10.4563C33.9166 10.155 33.9868 9.95313 34.0335 9.746C34.1283 9.3256 34.1266 8.88341 34.1212 7.54376C34.1204 7.34813 34.12 7.1525 34.1199 6.95687C34.1196 6.58669 34.1188 6.21652 34.1176 5.84635C34.1163 5.42212 34.1154 4.99789 34.1148 4.57365C34.1136 3.66017 34.1115 2.74669 34.1087 1.83321C31.5414 1.83124 28.9741 1.82937 26.4068 1.82828L26.1704 1.82818L23.6222 1.82719L22.3712 1.82673L22.2454 1.82669C20.899 1.82618 19.5526 1.82534 18.2062 1.82425C16.8201 1.82313 15.4339 1.82234 14.0478 1.82208C13.1934 1.82193 12.3391 1.82162 11.4847 1.82066C10.8938 1.81999 10.303 1.81962 9.71205 1.81968L9.6005 1.81971C9.29647 1.8198 8.99243 1.81989 8.68839 1.81943C8.37227 1.81883 8.05616 1.81836 7.74004 1.81862ZM15.1751 13.8537C15.1601 13.8301 15.1429 13.808 15.1105 13.7665C14.9682 13.7038 14.8974 13.7001 14.7477 13.7436L14.6126 13.8062L14.4602 13.8767L14.2979 13.9557C12.6847 14.7384 11.2665 16.0352 10.6077 17.7365L10.5393 17.9222C10.1099 19.0208 10.0374 20.1361 10.0431 21.3059C10.0438 21.4406 10.0441 21.5754 10.0442 21.7101C10.0439 22.0797 10.0443 22.4493 10.0455 22.8189C10.0468 23.2106 10.0474 23.6023 10.0476 23.994C10.0479 24.6924 10.0489 25.3908 10.0506 26.0893C10.0522 26.7685 10.0536 27.4477 10.0544 28.127L10.0546 28.2546L10.0552 28.8891C10.0571 30.6755 10.0603 32.4618 10.0643 34.2482C10.9515 34.2508 11.8387 34.2529 12.7258 34.2541C13.1577 34.2547 13.5896 34.2554 14.0215 34.2567C14.4003 34.2579 14.7791 34.2589 15.158 34.2592C15.3192 34.2594 15.4804 34.2595 15.6416 34.2597C17.2738 34.2664 18.9171 34.2022 20.346 33.3079L20.4536 33.2389C20.4855 33.2185 20.5175 33.1982 20.5496 33.1778C20.9665 32.913 21.3919 32.6427 21.7263 32.277L21.819 32.1703C21.9539 32.0245 22.0881 31.8783 22.2197 31.7295L22.3533 31.5766C23.7487 30.0205 24.0567 28.0448 24.0407 26.0269C24.0389 25.8144 24.0382 25.602 24.0379 25.3894C24.0374 24.987 24.0359 24.5847 24.0335 24.1823C24.0308 23.7213 24.0291 23.2603 24.0279 22.7994C24.0253 21.8069 24.0212 20.8144 24.0156 19.822L23.8949 19.7969L23.735 19.7642C23.5834 19.733 23.4346 19.7047 23.2808 19.6873C21.0474 19.4986 18.693 18.2135 17.1659 16.605L17.0103 16.438C16.3733 15.7738 15.8042 15.0563 15.374 14.2415L15.3033 14.1005L15.2365 13.9706C15.2063 13.9092 15.1921 13.8805 15.1751 13.8537Z" fill="url(#paint1_linear_1609_97551)" fill-opacity="0.16"/>
</g>
<defs>
<filter id="filter0_ii_1609_97551" x="0" y="1.43358" width="34.123" height="33.209" filterUnits="userSpaceOnUse" color-interpolation-filters="sRGB">
<feFlood flood-opacity="0" result="BackgroundImageFix"/>
<feBlend mode="normal" in="SourceGraphic" in2="BackgroundImageFix" result="shape"/>
<feColorMatrix in="SourceAlpha" type="matrix" values="0 0 0 0 0 0 0 0 0 0 0 0 0 0 0 0 0 0 127 0" result="hardAlpha"/>
<feOffset dy="0.382334"/>
<feGaussianBlur stdDeviation="0.191167"/>
<feComposite in2="hardAlpha" operator="arithmetic" k2="-1" k3="1"/>
<feColorMatrix type="matrix" values="0 0 0 0 1 0 0 0 0 1 0 0 0 0 1 0 0 0 0.25 0"/>
<feBlend mode="normal" in2="shape" result="effect1_innerShadow_1609_97551"/>
<feColorMatrix in="SourceAlpha" type="matrix" values="0 0 0 0 0 0 0 0 0 0 0 0 0 0 0 0 0 0 127 0" result="hardAlpha"/>
<feOffset dy="-0.382334"/>
<feGaussianBlur stdDeviation="0.191167"/>
<feComposite in2="hardAlpha" operator="arithmetic" k2="-1" k3="1"/>
<feColorMatrix type="matrix" values="0 0 0 0 1 0 0 0 0 1 0 0 0 0 1 0 0 0 0.25 0"/>
<feBlend mode="normal" in2="effect1_innerShadow_1609_97551" result="effect2_innerShadow_1609_97551"/>
</filter>
<linearGradient id="paint0_linear_1609_97551" x1="44" y1="52.5" x2="-6" y2="-12.5" gradientUnits="userSpaceOnUse">
<stop stop-color="#000BFF"/>
<stop offset="1" stop-color="#0199BB"/>
</linearGradient>
<linearGradient id="paint1_linear_1609_97551" x1="17.0616" y1="1.81592" x2="17.0616" y2="34.2601" gradientUnits="userSpaceOnUse">
<stop stop-color="#050C3B" stop-opacity="0"/>
<stop offset="1" stop-color="#050C3B"/>
</linearGradient>
</defs>
</svg>
